<svg xmlns="http://www.w3.org/2000/svg" shape-rendering="geometricPrecision" viewBox="0 0 8000 8000">
  <path d="M3539.02 1604.95c-414.2 6.7-818.2 113.2-1182.5 311.6-422.1 229.9-777.8 582.1-1011.7 1001.7-191.6 343.9-300.6 722.7-320.8 1115-4.1 81.3-4.1 186.6 0 267.5 15.6 301.9 82.7 592.9 200.7 870 90.2 211.8 208.9 411.1 351.1 589.5 302.9 379.9 700.3 663.6 1154.7 824 46.8 16.5 133.7 44.1 135 42.9.7-.7 93.5-363.3 93.5-365.2 0-1-2.5-2.2-7.2-3.7-76.6-22.8-165.3-55.5-244.8-90.3-228.1-99.8-436.5-237.6-619.5-409.6-12.8-12.1-57.5-56.4-77-76.3-111.3-114-217.5-252.5-303.1-395.5-47.1-78.6-92.6-167.6-130-254-152.6-352.9-208.5-739.6-162.8-1127.3 43.6-370.8 185.2-728.5 408.2-1031.5 103.6-140.7 226.2-270.9 362.7-385.1 264.3-221.1 582.3-377.9 919.5-453.3 80.3-17.9 178-33.7 251.5-40.7 9.9-.9 18.8-2.2 19.8-2.8.9-.6 56.6-87.7 123.8-193.6l122-192.5-5.3-.7c-5-.6-45.3-.7-77.8-.1zm1132.93 71.1-92.7 363c.1.1 11.1 3.1 24.5 6.8 320.3 87 622.9 250.9 871.6 471.9 58.2 51.8 121 114.1 173.5 172.1 272.7 301.4 455.6 672.7 528 1072 48.4 267.6 46.3 548.5-6.1 814.5-74.3 376.3-245.6 724.9-498.4 1013.5-54 61.7-124.6 133.3-186 188.5-276.2 248.6-611.4 422.2-975 504.9-103.6 23.6-217.5 40.5-322.6 47.8l-24.9 1.8-37.4 59-120.5 190-83.1 131 6.7.7c3.8.3 35.6 1 70.8 1.4 92.5 1 157.9-1.3 247-8.7 491-40.7 964.2-226.2 1355.5-531.4 126.2-98.4 249.7-215.4 356.5-337.6 319-364.9 528.3-814.8 601.4-1292.9 15.2-99.1 24.3-197.9 28.1-304 1.3-35.7 1.3-137.5 0-174-8.1-232.6-45.4-455.3-112.4-671.1-147-473.7-425.4-891-807.6-1210.3-188.3-157.4-391.5-282.9-618.8-382.2-111.3-48.7-238.6-93.3-354.9-124.4l-20.5-5.6c-1.3-.4-1.9.4-2.7 3.3z"/>
  <path fill="#f5af46" d="M4388.54 998.95c12.1 12.9 15.4 26.14 15.1 43.31-.39 9.23-2.74 17.83-5.17 26.69l-1.6 6.15-3.6 13.63-6.2 23.88-1.11 4.36-1.72 6.7-6.07 23.63-16.47 64.3-3.64 14.27-4.4 17.21-15.62 61.12-.7 2.7-20.07 78.3-20.3 79.25-.72 2.86-5.86 22.9-16.35 63.99-.7 2.7-20.07 78.3-20.36 79.5-.73 2.87-1.47 5.75-3.66 14.33-.73 2.87-16.89 65.98-3.89 15.18-.65 2.54-10.14 39.62-.7 2.73-2.8 10.93-22.4 87.45-20.87 81.5-.73 2.86-5.86 22.9-16.35 63.99-.7 2.7-20.07 78.3-20.3 79.25-.73 2.86-5.85 22.9-16.35 64-.7 2.7-20.07 78.29-20.36 79.5-.73 2.87-1.47 5.75-3.66 14.33-.73 2.87-16.9 65.98-3.88 15.19-.65 2.53-10.14 39.62-.7 2.73-2.8 10.93-22.4 87.45-20.88 81.5-.73 2.86-5.85 22.9-16.35 64-.7 2.7-20.07 78.29-20.36 79.5-.73 2.87-1.47 5.75-3.66 14.33-.73 2.87-17.53 68.47-3.23 12.6-.64 2.53-9.65 37.71-2.2 8.57-.72 2.85-1.45 5.67-4 15.67-15.45 59.91-1.8 6.94-4.36 16.76h1.73l145.48-.06h2.91l308.66-.11h6.85l143.9-.03 72.27-.02h10.9l167.92-.05h3.65l58.21-.03 167.67-.06h3.48l75.68-.02h33.81l107.4-.04 108.18-.03h17.9l46.41-.03h45.63l26.75-.02h27.85c20.68-.1 36.77 1.49 52.58 16.18 12.08 12.94 15.71 27.3 15.45 44.45-.6 15.5-9.72 28.26-17.9 40.87l-4.28 6.65-2.12 3.27-8.1 12.77-12.88 20.31-13 20.5-14.79 23.31-11.2 17.7-14.8 23.3-11.2 17.7-14.8 23.3-11.2 17.7-14.8 23.3-11.2 17.7-14.8 23.3-11.2 17.7-14.8 23.3-11.2 17.7-14.8 23.3-11.2 17.7-14.8 23.3-11.2 17.7-14.8 23.3-11.2 17.7-14.8 23.3-11.2 17.7-14.8 23.3-11.2 17.7-14.8 23.3-11.2 17.7-14.8 23.3-11.2 17.7-14.8 23.3-11.2 17.7-14.8 23.3-11.2 17.7-14.8 23.3-11.2 17.7-14.8 23.3-11.2 17.7-14.8 23.3-11.2 17.7-14.8 23.3-11.2 17.7-14.8 23.3-11.2 17.7-14.8 23.3-11.2 17.7-14.8 23.3-11.2 17.7-14.8 23.3-11.2 17.7-14.8 23.3-11.2 17.7-14.8 23.3-11.2 17.7-13 20.5-19 30-20.8 32.8-11.2 17.7-14.8 23.3-11.2 17.7-14.8 23.3-11.2 17.7-14.8 23.3-11.2 17.7-14.8 23.3-11.2 17.7-14.8 23.3-11.2 17.7-14.8 23.3-11.2 17.7-14.8 23.3-11.2 17.7-14.8 23.3-11.2 17.7-14.8 23.3-11.2 17.7-14.8 23.3-11.2 17.7-14.8 23.3-11.2 17.7-14.8 23.3-11.2 17.7-14.8 23.3-11.2 17.7-14.8 23.3-11.2 17.7-14.8 23.3-11.2 17.7-14.8 23.3-11.2 17.7-14.8 23.3-11.2 17.7-14.8 23.3-11.2 17.7-14.8 23.3-11.2 17.7-14.8 23.3-11.2 17.7-14.8 23.3-11.2 17.7-14.8 23.3-11.2 17.7-14.8 23.3-11.2 17.7-14.8 23.3-11.2 17.7-14.8 23.3-11.2 17.7-14.8 23.3-11.2 17.7-14.8 23.3-11.2 17.7-14.8 23.3-11.2 17.7-14.8 23.3-11.2 17.7-14.8 23.3-11.2 17.7-13 20.5-19 30-20.8 32.8-11.2 17.7-14.8 23.3-11.2 17.7-14.8 23.3-11.2 17.7-14.8 23.3-11.2 17.7-14.8 23.3-11.2 17.7-14.8 23.3-11.2 17.7-14.8 23.3-11.2 17.7-14.8 23.3-11.2 17.7-14.8 23.3-11.2 17.7-14.8 23.3-11.2 17.7-14.8 23.3-11.2 17.7-14.8 23.3-11.2 17.7-14.8 23.3-11.2 17.7-14.8 23.3-11.2 17.7-14.8 23.3-11.2 17.7-14.8 23.3-11.2 17.7-14.8 23.3-11.2 17.7-14.8 23.3-11.2 17.7-14.8 23.3-11.2 17.7-14.8 23.3-11.2 17.7-14.8 23.3-11.2 17.7-14.8 23.3-11.2 17.7-14.79 23.28-10.01 15.8-4.47 7.06-5.17 8.3c-9.49 15.3-20.46 27.13-38.34 31.77-15.31 3.12-31.26.61-44.5-7.83-12.9-8.8-20.98-20.7-24.73-35.89-2.17-16 2.2-31.28 6.28-46.6l2.71-10.47 4.64-17.84 6.9-26.71 2.28-8.93.57-2.25 5.96-23.2 15.78-61.54 3.47-13.57 8.41-32.89 11.2-43.75.69-2.72 20.13-78.53 20.3-79.25.72-2.86 5.86-22.9 16.35-63.99.7-2.7 20.07-78.3 21.22-82.9 20.77-81.07 21-82.03 21.56-84.25 20.75-81 1.46-5.71 5.85-22.92 15.62-61.12.7-2.7 20.07-78.3 20.3-79.25.73-2.86 5.85-22.9 16.35-64 .7-2.7 20.07-78.29 20.36-79.5.73-2.87 1.47-5.75 3.66-14.33.73-2.87 16.9-65.98 3.88-15.18.65-2.54 10.14-39.62.7-2.73 2.8-10.93 22.4-87.45 20.88-81.5.73-2.86 5.85-22.9 16.36-64 .69-2.7 20.07-78.29 20.3-79.25.73-2.86 5.85-22.9 16.36-64 .68-2.68 21.78-84.9 13.57-53.02 1.67-6.55 4.05-15.84h-1.73l-145.4.06h-2.9l-308.47.1-6.85.01-143.8.03-72.24.02H3058l-167.8.05h-3.65l-58.18.03-167.56.06h-3.48l-75.63.01h-33.79l-107.33.05-108.11.03h-17.89c-15.46 0-30.93 0-46.39.03h-45.6c-8.9 0-17.82 0-26.73.02H2168.03c-25.36.1-25.36.1-35.74-4.5l-2.3-.94c-13.26-5.67-22.31-17.47-27.74-30.47-5.15-13.84-4.36-29.18 1.34-42.67 4.71-10.06 10.9-19.15 17.03-28.38l7.6-11.92 2.97-4.71 1.52-2.41 8.58-13.5 13-20.5 14.79-23.31 11.2-17.7 14.8-23.3 11.2-17.7 14.8-23.3 11.2-17.7 21.8-34.3 24.2-38.2 20.8-32.8 11.2-17.7 14.8-23.3 11.2-17.7 14.8-23.3 11.2-17.7 14.8-23.3 11.2-17.7 14.8-23.3 11.2-17.7 14.8-23.3 11.2-17.7 14.8-23.3 11.2-17.7 14.8-23.3 11.2-17.7 14.8-23.3 11.2-17.7 14.8-23.3 11.2-17.7 14.8-23.3 11.2-17.7 14.8-23.3 11.2-17.7 14.8-23.3 11.2-17.7 14.8-23.3 11.2-17.7 14.8-23.3 11.2-17.7 14.8-23.3 11.2-17.7 14.8-23.3 11.2-17.7 14.8-23.3 11.2-17.7 14.8-23.3 11.2-17.7 14.8-23.3 11.2-17.7 14.8-23.3 11.2-17.7 13-20.5 19-30 20.8-32.8 11.2-17.7 14.8-23.3 11.2-17.7 14.8-23.3 11.2-17.7 14.8-23.3 11.2-17.7 14.8-23.3 11.2-17.7 14.8-23.3 11.2-17.7 14.8-23.3 11.2-17.7 14.8-23.3 11.2-17.7 14.8-23.3 11.2-17.7 14.8-23.3 11.2-17.7 14.8-23.3 11.2-17.7 14.8-23.3 11.2-17.7 14.8-23.3 11.2-17.7 14.8-23.3 11.2-17.7 14.8-23.3 11.2-17.7 14.8-23.3 11.2-17.7 14.8-23.3 11.2-17.7 14.8-23.3 11.2-17.7 14.8-23.3 11.2-17.7 14.8-23.3 11.2-17.7 14.8-23.3 11.2-17.7 14.8-23.3 11.2-17.7 14.8-23.3 11.2-17.7 14.8-23.3 11.2-17.7 14.8-23.3 11.2-17.7 14.8-23.3 11.2-17.7 14.8-23.3 11.2-17.7 14.8-23.3 11.2-17.7 14.8-23.3 11.2-17.7 14.8-23.3 11.2-17.7 14.8-23.3 11.2-17.7 13-20.5 19-30 20.8-32.8 11.2-17.7 14.8-23.3 11.2-17.7 14.8-23.3 11.2-17.7 14.8-23.3 11.2-17.7 14.8-23.3 11.2-17.7 14.8-23.3 11.2-17.7 14.8-23.3 11.2-17.7 14.8-23.3 11.2-17.7 14.8-23.3 11.2-17.7 14.8-23.3 11.2-17.7 14.8-23.3 11.2-17.7 14.8-23.3 11.2-17.7 14.8-23.3 11.2-17.7 14.8-23.3 11.2-17.7 14.8-23.3 11.2-17.7 14.8-23.3 11.2-17.7 14.8-23.3 11.2-17.7 14.8-23.3 11.2-17.7 14.8-23.3 11.2-17.7 14.8-23.3 11.2-17.7 14.8-23.3 11.2-17.7 14.8-23.3 9.8-15.48 5.88-9.3 3.17-5.02c11.42-18.14 21.46-32.72 43.36-38.4 19.07-4.06 39.2 2.62 53.25 15.76z"/>
  <path fill="#878787" d="M2222 2139c0 3.95-1.7 5.06-4.38 7.75l-1.95 1.92-2.04 2.04-6.72 6.68-4.64 4.62-12.25 12.18-12.5 12.43L2153 2211l-2-1 2-1.98 7.44-7.4 3.2-3.19a276.31 276.31 0 0 0 15.66-16.5c3.37-3.83 7.02-7.4 10.64-11l2.3-2.3a236 236 0 0 1 12.8-11.89c3.46-3.07 6.7-6.38 9.96-9.68l2.06-2.07 4.94-4.99z"/>
  <path fill="#f9bf7a" d="m4497 1019 2 1-13 13-2-1 4.25-4.81 2.4-2.7a39.16 39.16 0 0 1 6.35-5.49z"/>
  <path fill="#f4d386" d="m2993 3383 1 2c-1.75 5.25-4.37 8.91-9 12a42.5 42.5 0 0 1 5.13-9.81l1.63-2.4 1.24-1.79z"/>
  <path fill="#f5d082" d="m3092 3227 3 2-1.75 1.63a53.24 53.24 0 0 0-6.25 8.37l-2-1 7-11z"/>
  <path fill="#f3d07a" d="m2825 3648 3 1c-1.57 3.15-4.28 4.8-7 7a37.17 37.17 0 0 1 4-8z"/>
  <path fill="#faca8f" d="m4497 1019 2 1-7 6-2-1 7-6z"/>
</svg>
